<svg aria-hidden="true" style="position: absolute; width: 0; height: 0; overflow: hidden;" version="1.1" xmlns="http://www.w3.org/2000/svg" xmlns:xlink="http://www.w3.org/1999/xlink">
<defs>
<symbol id="icon-stars" viewBox="0 0 50 32">
<path fill="#bdc6d2" style="fill: var(--color1, #bdc6d2)" d="M0.774 4.129c0.428 0 0.774-0.347 0.774-0.774s-0.347-0.774-0.774-0.774v0c-0.428 0-0.774 0.347-0.774 0.774s0.347 0.774 0.774 0.774v0zM0.774 9.677c0.428 0 0.774-0.347 0.774-0.774s-0.347-0.774-0.774-0.774v0c-0.428 0-0.774 0.347-0.774 0.774s0.347 0.774 0.774 0.774v0zM0.774 15.226c0.428 0 0.774-0.347 0.774-0.774s-0.347-0.774-0.774-0.774v0c-0.428 0-0.774 0.347-0.774 0.774s0.347 0.774 0.774 0.774v0zM0.774 20.774c0.428 0 0.774-0.347 0.774-0.774s-0.347-0.774-0.774-0.774v0c-0.428 0-0.774 0.347-0.774 0.774s0.347 0.774 0.774 0.774v0zM0.774 26.323c0.428 0 0.774-0.347 0.774-0.774s-0.347-0.774-0.774-0.774v0c-0.428 0-0.774 0.347-0.774 0.774s0.347 0.774 0.774 0.774v0zM0.774 31.871c0.428 0 0.774-0.347 0.774-0.774s-0.347-0.774-0.774-0.774v0c-0.428 0-0.774 0.347-0.774 0.774s0.347 0.774 0.774 0.774v0zM6.194 1.548c0.428 0 0.774-0.347 0.774-0.774s-0.347-0.774-0.774-0.774v0c-0.428 0-0.774 0.347-0.774 0.774s0.347 0.774 0.774 0.774v0zM6.194 7.097c0.428 0 0.774-0.347 0.774-0.774s-0.347-0.774-0.774-0.774v0c-0.428 0-0.774 0.347-0.774 0.774s0.347 0.774 0.774 0.774v0zM6.194 12.645c0.428 0 0.774-0.347 0.774-0.774s-0.347-0.774-0.774-0.774v0c-0.428 0-0.774 0.347-0.774 0.774s0.347 0.774 0.774 0.774v0zM6.194 18.194c0.428 0 0.774-0.347 0.774-0.774s-0.347-0.774-0.774-0.774v0c-0.428 0-0.774 0.347-0.774 0.774s0.347 0.774 0.774 0.774v0zM6.194 23.742c0.428 0 0.774-0.347 0.774-0.774s-0.347-0.774-0.774-0.774v0c-0.428 0-0.774 0.347-0.774 0.774s0.347 0.774 0.774 0.774v0zM6.194 29.29c0.428 0 0.774-0.347 0.774-0.774s-0.347-0.774-0.774-0.774v0c-0.428 0-0.774 0.347-0.774 0.774s0.347 0.774 0.774 0.774v0zM11.613 4.129c0.428 0 0.774-0.347 0.774-0.774s-0.347-0.774-0.774-0.774v0c-0.428 0-0.774 0.347-0.774 0.774s0.347 0.774 0.774 0.774v0zM11.613 9.677c0.428 0 0.774-0.347 0.774-0.774s-0.347-0.774-0.774-0.774v0c-0.428 0-0.774 0.347-0.774 0.774s0.347 0.774 0.774 0.774v0zM11.613 15.226c0.428 0 0.774-0.347 0.774-0.774s-0.347-0.774-0.774-0.774v0c-0.428 0-0.774 0.347-0.774 0.774s0.347 0.774 0.774 0.774v0zM11.613 20.774c0.428 0 0.774-0.347 0.774-0.774s-0.347-0.774-0.774-0.774v0c-0.428 0-0.774 0.347-0.774 0.774s0.347 0.774 0.774 0.774v0zM11.613 26.323c0.428 0 0.774-0.347 0.774-0.774s-0.347-0.774-0.774-0.774v0c-0.428 0-0.774 0.347-0.774 0.774s0.347 0.774 0.774 0.774v0zM11.613 31.871c0.428 0 0.774-0.347 0.774-0.774s-0.347-0.774-0.774-0.774v0c-0.428 0-0.774 0.347-0.774 0.774s0.347 0.774 0.774 0.774v0zM17.032 1.548c0.428 0 0.774-0.347 0.774-0.774s-0.347-0.774-0.774-0.774v0c-0.428 0-0.774 0.347-0.774 0.774s0.347 0.774 0.774 0.774v0zM17.032 7.097c0.428 0 0.774-0.347 0.774-0.774s-0.347-0.774-0.774-0.774v0c-0.428 0-0.774 0.347-0.774 0.774s0.347 0.774 0.774 0.774v0zM17.032 12.645c0.428 0 0.774-0.347 0.774-0.774s-0.347-0.774-0.774-0.774v0c-0.428 0-0.774 0.347-0.774 0.774s0.347 0.774 0.774 0.774v0zM17.032 18.194c0.428 0 0.774-0.347 0.774-0.774s-0.347-0.774-0.774-0.774v0c-0.428 0-0.774 0.347-0.774 0.774s0.347 0.774 0.774 0.774v0zM17.032 23.742c0.428 0 0.774-0.347 0.774-0.774s-0.347-0.774-0.774-0.774v0c-0.428 0-0.774 0.347-0.774 0.774s0.347 0.774 0.774 0.774v0zM17.032 29.29c0.428 0 0.774-0.347 0.774-0.774s-0.347-0.774-0.774-0.774v0c-0.428 0-0.774 0.347-0.774 0.774s0.347 0.774 0.774 0.774v0zM22.452 4.129c0.428 0 0.774-0.347 0.774-0.774s-0.347-0.774-0.774-0.774v0c-0.428 0-0.774 0.347-0.774 0.774s0.347 0.774 0.774 0.774v0zM22.452 9.677c0.428 0 0.774-0.347 0.774-0.774s-0.347-0.774-0.774-0.774v0c-0.428 0-0.774 0.347-0.774 0.774s0.347 0.774 0.774 0.774v0zM22.452 15.226c0.428 0 0.774-0.347 0.774-0.774s-0.347-0.774-0.774-0.774v0c-0.428 0-0.774 0.347-0.774 0.774s0.347 0.774 0.774 0.774v0zM22.452 20.774c0.428 0 0.774-0.347 0.774-0.774s-0.347-0.774-0.774-0.774v0c-0.428 0-0.774 0.347-0.774 0.774s0.347 0.774 0.774 0.774v0zM22.452 26.323c0.428 0 0.774-0.347 0.774-0.774s-0.347-0.774-0.774-0.774v0c-0.428 0-0.774 0.347-0.774 0.774s0.347 0.774 0.774 0.774v0zM22.452 31.871c0.428 0 0.774-0.347 0.774-0.774s-0.347-0.774-0.774-0.774v0c-0.428 0-0.774 0.347-0.774 0.774s0.347 0.774 0.774 0.774v0zM27.871 1.548c0.428 0 0.774-0.347 0.774-0.774s-0.347-0.774-0.774-0.774v0c-0.428 0-0.774 0.347-0.774 0.774s0.347 0.774 0.774 0.774v0zM27.871 7.097c0.428 0 0.774-0.347 0.774-0.774s-0.347-0.774-0.774-0.774v0c-0.428 0-0.774 0.347-0.774 0.774s0.347 0.774 0.774 0.774v0zM27.871 12.645c0.428 0 0.774-0.347 0.774-0.774s-0.347-0.774-0.774-0.774v0c-0.428 0-0.774 0.347-0.774 0.774s0.347 0.774 0.774 0.774v0zM27.871 18.194c0.428 0 0.774-0.347 0.774-0.774s-0.347-0.774-0.774-0.774v0c-0.428 0-0.774 0.347-0.774 0.774s0.347 0.774 0.774 0.774v0zM27.871 23.742c0.428 0 0.774-0.347 0.774-0.774s-0.347-0.774-0.774-0.774v0c-0.428 0-0.774 0.347-0.774 0.774s0.347 0.774 0.774 0.774v0zM27.871 29.29c0.428 0 0.774-0.347 0.774-0.774s-0.347-0.774-0.774-0.774v0c-0.428 0-0.774 0.347-0.774 0.774s0.347 0.774 0.774 0.774v0zM33.29 4.129c0.428 0 0.774-0.347 0.774-0.774s-0.347-0.774-0.774-0.774v0c-0.428 0-0.774 0.347-0.774 0.774s0.347 0.774 0.774 0.774v0zM33.29 9.677c0.428 0 0.774-0.347 0.774-0.774s-0.347-0.774-0.774-0.774v0c-0.428 0-0.774 0.347-0.774 0.774s0.347 0.774 0.774 0.774v0zM33.29 15.226c0.428 0 0.774-0.347 0.774-0.774s-0.347-0.774-0.774-0.774v0c-0.428 0-0.774 0.347-0.774 0.774s0.347 0.774 0.774 0.774v0zM33.29 20.774c0.428 0 0.774-0.347 0.774-0.774s-0.347-0.774-0.774-0.774v0c-0.428 0-0.774 0.347-0.774 0.774s0.347 0.774 0.774 0.774v0zM33.29 26.323c0.428 0 0.774-0.347 0.774-0.774s-0.347-0.774-0.774-0.774v0c-0.428 0-0.774 0.347-0.774 0.774s0.347 0.774 0.774 0.774v0zM33.29 31.871c0.428 0 0.774-0.347 0.774-0.774s-0.347-0.774-0.774-0.774v0c-0.428 0-0.774 0.347-0.774 0.774s0.347 0.774 0.774 0.774v0zM38.71 1.548c0.428 0 0.774-0.347 0.774-0.774s-0.347-0.774-0.774-0.774v0c-0.428 0-0.774 0.347-0.774 0.774s0.347 0.774 0.774 0.774v0zM38.71 7.097c0.428 0 0.774-0.347 0.774-0.774s-0.347-0.774-0.774-0.774v0c-0.428 0-0.774 0.347-0.774 0.774s0.347 0.774 0.774 0.774v0zM38.71 12.645c0.428 0 0.774-0.347 0.774-0.774s-0.347-0.774-0.774-0.774v0c-0.428 0-0.774 0.347-0.774 0.774s0.347 0.774 0.774 0.774v0zM38.71 18.194c0.428 0 0.774-0.347 0.774-0.774s-0.347-0.774-0.774-0.774v0c-0.428 0-0.774 0.347-0.774 0.774s0.347 0.774 0.774 0.774v0zM38.71 23.742c0.428 0 0.774-0.347 0.774-0.774s-0.347-0.774-0.774-0.774v0c-0.428 0-0.774 0.347-0.774 0.774s0.347 0.774 0.774 0.774v0zM38.71 29.29c0.428 0 0.774-0.347 0.774-0.774s-0.347-0.774-0.774-0.774v0c-0.428 0-0.774 0.347-0.774 0.774s0.347 0.774 0.774 0.774v0zM44.129 4.129c0.428 0 0.774-0.347 0.774-0.774s-0.347-0.774-0.774-0.774v0c-0.428 0-0.774 0.347-0.774 0.774s0.347 0.774 0.774 0.774v0zM44.129 9.677c0.428 0 0.774-0.347 0.774-0.774s-0.347-0.774-0.774-0.774v0c-0.428 0-0.774 0.347-0.774 0.774s0.347 0.774 0.774 0.774v0zM44.129 15.226c0.428 0 0.774-0.347 0.774-0.774s-0.347-0.774-0.774-0.774v0c-0.428 0-0.774 0.347-0.774 0.774s0.347 0.774 0.774 0.774v0zM44.129 20.774c0.428 0 0.774-0.347 0.774-0.774s-0.347-0.774-0.774-0.774v0c-0.428 0-0.774 0.347-0.774 0.774s0.347 0.774 0.774 0.774v0zM44.129 26.323c0.428 0 0.774-0.347 0.774-0.774s-0.347-0.774-0.774-0.774v0c-0.428 0-0.774 0.347-0.774 0.774s0.347 0.774 0.774 0.774v0zM44.129 31.871c0.428 0 0.774-0.347 0.774-0.774s-0.347-0.774-0.774-0.774v0c-0.428 0-0.774 0.347-0.774 0.774s0.347 0.774 0.774 0.774v0zM49.548 1.548c0.428 0 0.774-0.347 0.774-0.774s-0.347-0.774-0.774-0.774v0c-0.428 0-0.774 0.347-0.774 0.774s0.347 0.774 0.774 0.774v0zM49.548 7.097c0.428 0 0.774-0.347 0.774-0.774s-0.347-0.774-0.774-0.774v0c-0.428 0-0.774 0.347-0.774 0.774s0.347 0.774 0.774 0.774v0zM49.548 12.645c0.428 0 0.774-0.347 0.774-0.774s-0.347-0.774-0.774-0.774v0c-0.428 0-0.774 0.347-0.774 0.774s0.347 0.774 0.774 0.774v0zM49.548 18.194c0.428 0 0.774-0.347 0.774-0.774s-0.347-0.774-0.774-0.774v0c-0.428 0-0.774 0.347-0.774 0.774s0.347 0.774 0.774 0.774v0zM49.548 23.742c0.428 0 0.774-0.347 0.774-0.774s-0.347-0.774-0.774-0.774v0c-0.428 0-0.774 0.347-0.774 0.774s0.347 0.774 0.774 0.774v0zM49.548 29.29c0.428 0 0.774-0.347 0.774-0.774s-0.347-0.774-0.774-0.774v0c-0.428 0-0.774 0.347-0.774 0.774s0.347 0.774 0.774 0.774v0z"></path>
</symbol>
<symbol id="icon-confetti" viewBox="0 0 44 32">
<path d="M0 0h55.572v32h-55.572z"></path>
</symbol>
<symbol id="icon-facebook" viewBox="0 0 16 32">
<path fill="#5a6482" style="fill: var(--color2, #5a6482)" d="M10.386 32v-14.596h4.716l0.708-5.691h-5.424v-3.63c0-1.648 0.439-2.77 2.715-2.77l2.9-0.002v-5.088c-0.501-0.071-2.222-0.224-4.226-0.224-4.183 0-7.045 2.652-7.045 7.52v4.196h-4.729v5.689h4.729v14.596h5.657z"></path>
</symbol>
<symbol id="icon-insta" viewBox="0 0 32 32">
<path fill="#5a6482" style="fill: var(--color2, #5a6482)" d="M10.667 16c0-2.946 2.388-5.333 5.333-5.333s5.333 2.388 5.333 5.333v0c0 2.946-2.388 5.333-5.333 5.333s-5.333-2.388-5.333-5.333v0zM7.787 16c-0.001 0.036-0.001 0.078-0.001 0.121 0 4.538 3.679 8.217 8.217 8.217s8.217-3.679 8.217-8.217c0-0.043-0-0.085-0.001-0.127l0 0.006c-0.068-4.486-3.72-8.096-8.216-8.096s-8.148 3.61-8.216 8.090l-0 0.006zM22.624 7.458c0 1.061 0.86 1.921 1.921 1.921s1.921-0.86 1.921-1.921v0c0-1.061-0.86-1.921-1.921-1.921s-1.921 0.86-1.921 1.921v0zM9.538 29.022c-1.561-0.071-2.409-0.329-2.972-0.549-0.721-0.271-1.336-0.679-1.839-1.195l-0.001-0.001c-0.518-0.503-0.926-1.117-1.185-1.804l-0.011-0.034c-0.22-0.564-0.48-1.412-0.551-2.972-0.076-1.687-0.092-2.194-0.092-6.466s0.018-4.779 0.092-6.466c0.071-1.561 0.332-2.407 0.551-2.972 0.271-0.721 0.679-1.336 1.195-1.839l0.001-0.001c0.56-0.56 1.093-0.907 1.84-1.196 0.564-0.219 1.412-0.48 2.972-0.551 1.687-0.076 2.194-0.092 6.464-0.092 4.274 0 4.779 0.018 6.468 0.092 1.559 0.071 2.405 0.334 2.971 0.551 0.747 0.29 1.28 0.636 1.84 1.196s0.907 1.093 1.196 1.84c0.22 0.564 0.48 1.412 0.551 2.972 0.078 1.689 0.092 2.194 0.092 6.466s-0.014 4.779-0.092 6.466c-0.071 1.561-0.332 2.409-0.551 2.972-0.271 0.721-0.679 1.335-1.195 1.837l-0.001 0.001c-0.56 0.56-1.093 0.907-1.84 1.196-0.564 0.22-1.412 0.48-2.971 0.551-1.689 0.076-2.194 0.092-6.468 0.092-4.27 0-4.777-0.016-6.464-0.092zM9.404 0.1c-1.703 0.075-2.868 0.345-3.884 0.741-1.109 0.424-2.054 1.051-2.833 1.843l-0.001 0.001c-0.889 0.889-1.438 1.78-1.845 2.834-0.396 1.019-0.667 2.181-0.743 3.886-0.080 1.707-0.098 2.251-0.098 6.596s0.018 4.889 0.098 6.596c0.076 1.705 0.347 2.868 0.743 3.884 0.424 1.109 1.051 2.055 1.844 2.833l0.001 0.001c0.889 0.889 1.781 1.436 2.834 1.845 1.019 0.396 2.181 0.667 3.884 0.743 1.707 0.080 2.251 0.098 6.596 0.098 4.347 0 4.891-0.018 6.597-0.098 1.703-0.076 2.866-0.347 3.884-0.743 1.109-0.425 2.054-1.053 2.833-1.844l0.001-0.001c0.889-0.889 1.436-1.781 1.845-2.834 0.396-1.017 0.667-2.18 0.743-3.884 0.078-1.707 0.096-2.251 0.096-6.596s-0.018-4.889-0.096-6.596c-0.076-1.705-0.347-2.868-0.743-3.884-0.425-1.109-1.053-2.054-1.844-2.833l-0.001-0.001c-0.889-0.889-1.781-1.438-2.834-1.845-1.019-0.396-2.18-0.667-3.883-0.743-1.707-0.080-2.252-0.098-6.596-0.098-4.35 0-4.892 0.018-6.599 0.098z"></path>
</symbol>
<symbol id="icon-line" viewBox="0 0 649 32">
<path fill="none" opacity="0.2" stroke="#bdc6d2" style="stroke: var(--color1, #bdc6d2)" stroke-linejoin="miter" stroke-linecap="round" stroke-miterlimit="10" stroke-width="1.8286" d="M1.015 20.453s107.277 17.103 148.553 3.723c41.277-13.378 105.946-28.976 146.926-21.177s79.126 28.114 119.075 28.114 81.157-28.114 119.709-28.114c38.552 0 92.56 1.417 112.901 3.308"></path>
</symbol>
<symbol id="icon-linkedin" viewBox="0 0 32 32">
<path fill="#5a6482" style="fill: var(--color2, #5a6482)" d="M25.333 0h-18.667c-3.682 0-6.667 2.985-6.667 6.667v0 18.667c0 3.682 2.985 6.667 6.667 6.667v0h18.667c3.682 0 6.667-2.985 6.667-6.667v0-18.667c0-3.682-2.985-6.667-6.667-6.667v0zM10.667 25.333h-4v-14.667h4v14.667zM8.667 8.976c-1.29-0.005-2.334-1.052-2.334-2.343 0-0.003 0-0.006 0-0.009v0c0-1.298 1.047-2.352 2.334-2.352s2.334 1.052 2.334 2.352c0 1.298-1.045 2.352-2.334 2.352zM26.667 25.333h-4v-7.472c0-4.491-5.333-4.151-5.333 0v7.472h-4v-14.667h4v2.354c1.861-3.449 9.333-3.705 9.333 3.3v9.012z"></path>
</symbol>
<symbol id="icon-logo" viewBox="0 0 87 32">
<path fill="#f46752" style="fill: var(--color3, #f46752)" d="M7.283 0v13.341c1.28-0.931 2.477-1.635 3.6-2.1 1.122-0.465 2.17-0.698 3.145-0.698 2.124 0 3.891 0.924 5.299 2.769s2.112 4.189 2.112 7.035c0 3.276-0.931 5.952-2.793 8.035-1.861 2.083-4.251 3.124-7.183 3.124-0.787-0.001-1.543-0.135-2.247-0.38l0.048 0.015c-0.76-0.263-1.418-0.628-1.998-1.088l0.014 0.011-5.297 1.53v-23.773c0-1.221-0.152-2.292-0.454-3.212-0.304-0.913-0.816-1.88-1.53-2.885l7.283-1.723zM7.283 28.636c0.398 0.141 0.899 0.279 1.411 0.387l0.083 0.015c0.397 0.084 0.854 0.134 1.322 0.139l0.004 0c1.78 0 3.217-0.721 4.31-2.164s1.635-3.374 1.635-5.783c0-2.397-0.547-4.282-1.634-5.656-1.094-1.373-2.583-2.060-4.48-2.060-0.314 0-0.667 0.024-1.064 0.064-0.653 0.075-1.192 0.159-1.724 0.261l0.143-0.023v14.819h-0.005v0.001zM41.687 20.171h-12.971v0.344c0 2.699 0.709 4.752 2.134 6.149 1.42 1.402 3.49 2.101 6.207 2.101 0.604 0 1.296-0.041 2.075-0.117 1.182-0.124 2.107-0.25 3.025-0.397l-0.32 0.042c-1.262 1.163-2.618 2.042-4.059 2.641-1.443 0.593-2.961 0.896-4.555 0.896-3.018 0-5.427-0.943-7.23-2.822s-2.704-4.404-2.704-7.563c0-3.206 0.942-5.824 2.832-7.855s4.327-3.048 7.312-3.048c2.553 0 4.571 0.838 6.043 2.52s2.21 3.979 2.21 6.895v0.214h0.001zM36.039 18.315c0-1.908-0.291-3.391-0.873-4.439s-1.403-1.571-2.466-1.571c-1.262 0-2.233 0.6-2.908 1.797s-1.029 2.956-1.053 5.271l7.301-1.059zM50.523 0v24.89c0 1.466 0.133 2.652 0.4 3.566s0.68 1.845 1.239 2.793h-8.557c0.559-0.977 0.972-1.925 1.24-2.856 0.267-0.925 0.4-2.095 0.4-3.503v-17.071c0-1.221-0.157-2.292-0.465-3.212-0.315-0.913-0.826-1.88-1.542-2.885l7.286-1.722zM61.766 0v24.89c0 1.466 0.133 2.652 0.4 3.566s0.681 1.845 1.238 2.793h-8.55c0.558-0.977 0.972-1.925 1.239-2.856 0.267-0.925 0.4-2.095 0.4-3.503v-17.071c0-1.221-0.157-2.292-0.466-3.212-0.314-0.913-0.825-1.88-1.545-2.885l7.282-1.722zM65.814 21.225c0-3.235 0.982-5.824 2.95-7.768 1.965-1.949 4.59-2.92 7.864-2.92 3.146 0 5.636 0.96 7.474 2.874 1.839 1.92 2.757 4.509 2.757 7.768 0 3.287-0.977 5.916-2.931 7.878s-4.571 2.944-7.865 2.944c-3.145 0-5.641-0.972-7.485-2.909-1.84-1.938-2.764-4.562-2.764-7.867zM76.282 12.177c-1.435 0-2.565 0.792-3.391 2.368-0.825 1.583-1.237 3.765-1.237 6.552 0 2.856 0.424 5.108 1.274 6.755s1.996 2.468 3.449 2.468c1.478 0 2.635-0.792 3.466-2.381s1.251-3.823 1.251-6.715c0-2.856-0.424-5.079-1.275-6.667-0.848-1.588-2.022-2.38-3.536-2.38z"></path>
</symbol>
<symbol id="icon-music" viewBox="0 0 27 32">
<path fill="#5a6482" style="fill: var(--color2, #5a6482)" d="M19.41 0c0.514 4.54 2.976 7.248 7.257 7.538v5.106c-2.482 0.249-4.654-0.585-7.182-2.16v9.554c0 12.135-12.853 15.929-18.020 7.228-3.321-5.595-1.287-15.419 9.362-15.812v5.387c-0.944 0.156-1.776 0.373-2.576 0.655l0.105-0.032c-2.37 0.827-3.712 2.372-3.339 5.099 0.718 5.223 10.027 6.768 9.252-3.436v-19.116h5.14v-0.009z"></path>
</symbol>
<symbol id="icon-youtube" viewBox="0 0 46 32">
<path fill="#5a6482" style="fill: var(--color2, #5a6482)" d="M24.135 31.957l-9.483-0.172c-3.070-0.060-6.149 0.060-9.159-0.567-4.58-0.937-4.903-5.525-5.244-9.376-0.16-1.722-0.251-3.724-0.251-5.747 0-3.725 0.309-7.377 0.904-10.933l-0.053 0.385c0.496-3.012 2.459-4.809 5.492-5.004 10.236-0.711 20.542-0.626 30.756-0.295 1.079 0.030 2.165 0.196 3.23 0.386 5.25 0.921 5.378 6.123 5.719 10.503 0.338 4.423 0.196 8.871-0.453 13.266-0.521 3.637-1.516 6.688-5.719 6.983-5.266 0.386-10.411 0.695-15.692 0.597 0-0.023-0.030-0.025-0.044-0.025zM18.56 22.747c3.968-2.281 7.861-4.523 11.806-6.788-3.975-2.281-7.86-4.523-11.806-6.788v13.575z"></path>
</symbol>
</defs>
</svg>
